<?xml version="1.0" encoding="UTF-8" standalone="no"?>
<!DOCTYPE svg PUBLIC "-//W3C//DTD SVG 20010904//EN"
              "http://www.w3.org/TR/2001/REC-SVG-20010904/DTD/svg10.dtd">

<svg xmlns="http://www.w3.org/2000/svg"
     width="4.15299in" height="0.619949in"
     viewBox="0 0 623 93">
  <path id="Выделение #1"
        fill="none" stroke="black" stroke-width="1"
        d="M 370.00,0.00
           C 370.00,0.00 370.00,27.00 370.00,27.00
             370.00,27.00 386.00,27.00 386.00,27.00
             386.00,27.00 386.00,39.00 386.00,39.00
             386.00,39.00 370.00,39.00 370.00,39.00
             370.00,39.00 370.00,62.00 370.00,62.00
             370.05,66.36 370.43,72.41 374.22,75.26
             377.26,77.54 382.12,76.62 387.00,78.00
             383.49,88.96 373.58,92.24 363.00,91.99
             360.13,91.92 357.64,91.69 355.00,90.43
             349.72,87.91 347.47,83.97 345.00,79.00
             339.98,93.71 315.37,97.33 306.99,84.00
             304.03,79.28 304.01,75.32 304.00,70.00
             304.00,70.00 304.00,39.00 304.00,39.00
             304.00,39.00 297.00,39.00 297.00,39.00
             306.32,61.41 277.61,69.72 261.00,65.00
             271.11,81.88 287.87,70.83 298.00,69.00
             296.45,82.78 279.09,92.72 266.00,91.68
             247.54,90.21 233.00,74.84 234.09,56.00
             235.98,23.57 280.61,11.86 297.00,38.00
             297.00,38.00 297.00,27.00 297.00,27.00
             297.00,27.00 304.00,27.00 304.00,27.00
             304.00,27.00 305.02,17.50 305.02,17.50
             305.02,17.50 312.00,13.58 312.00,13.58
             312.00,13.58 329.00,7.00 329.00,7.00
             329.00,7.00 330.00,27.00 330.00,27.00
             330.00,27.00 345.00,27.00 345.00,27.00
             345.00,27.00 345.00,9.00 345.00,9.00
             345.00,9.00 370.00,0.00 370.00,0.00 Z
           M 539.96,11.55
           C 550.85,20.07 542.39,26.91 556.00,27.00
             556.00,27.00 563.00,27.00 563.00,27.00
             563.00,27.00 563.00,39.00 563.00,39.00
             563.00,39.00 548.00,39.00 548.00,39.00
             548.00,39.00 548.00,62.00 548.00,62.00
             548.02,65.01 547.93,68.22 549.31,70.98
             550.72,73.79 552.97,75.72 556.00,76.57
             558.44,77.26 562.54,76.61 563.13,79.31
             563.68,81.86 560.69,84.81 558.91,86.21
             553.85,90.18 546.40,92.30 540.00,91.91
             531.77,91.40 525.15,87.16 522.79,79.00
             521.66,75.11 522.00,68.26 521.86,64.00
             521.86,64.00 521.86,36.00 521.86,36.00
             522.00,34.02 522.08,30.85 521.86,29.00
             520.13,23.75 515.24,20.43 509.96,22.68
             507.49,23.74 505.96,25.26 504.00,27.00
             506.86,27.84 508.58,28.44 510.96,30.39
             526.34,43.07 503.73,60.40 492.51,44.98
             490.52,42.25 490.30,40.22 490.00,37.00
             483.68,40.88 482.88,44.60 490.00,48.59
             497.76,52.92 518.11,53.75 518.96,70.00
             520.07,91.39 492.40,93.63 477.00,90.74
             472.95,89.98 468.39,88.79 465.02,86.35
             457.11,80.66 456.76,69.43 465.02,65.17
             467.64,63.82 472.14,64.10 476.00,63.00
             462.25,60.38 454.17,44.28 464.21,33.04
             471.16,25.27 481.20,24.01 491.00,24.00
             495.11,4.39 526.68,1.18 539.96,11.55 Z
           M 4.80,34.09
           C 8.72,28.93 16.74,25.59 23.00,24.46
             31.59,22.91 46.12,24.68 52.96,30.39
             58.55,35.06 60.51,44.58 53.89,49.27
             49.48,52.39 43.93,50.81 39.00,52.00
             50.72,53.81 61.66,59.61 60.96,73.00
             60.74,77.10 59.62,79.86 56.79,82.90
             50.27,89.88 37.20,92.19 28.00,91.99
             21.01,91.83 9.41,89.44 4.21,84.61
             -1.30,79.49 -1.43,70.32 5.10,66.01
             8.50,63.76 13.01,64.14 17.00,63.00
             4.10,59.23 -4.19,45.91 4.80,34.09 Z
           M 128.00,65.00
           C 128.04,72.17 131.43,81.07 138.49,71.95
             141.35,68.26 141.94,63.50 142.00,59.00
             142.07,53.12 141.85,47.24 138.78,42.00
             136.40,37.95 133.24,35.96 132.72,33.72
             131.50,28.52 139.94,24.69 144.00,24.18
             153.52,23.00 159.94,27.23 163.53,36.00
             169.06,49.54 166.07,72.15 155.82,82.95
             143.66,95.66 121.47,94.15 109.00,82.95
             97.94,97.05 74.92,93.70 67.00,78.00
             64.35,72.76 64.01,67.72 64.00,62.00
             64.00,62.00 64.00,27.00 64.00,27.00
             64.00,27.00 90.00,27.00 90.00,27.00
             90.00,27.00 90.00,62.00 90.00,62.00
             90.01,66.00 89.97,75.52 95.98,75.52
             101.89,75.52 101.99,64.96 102.00,61.00
             102.00,61.00 102.00,27.00 102.00,27.00
             102.00,27.00 128.00,27.00 128.00,27.00
             128.00,27.00 128.00,65.00 128.00,65.00 Z
           M 200.00,91.68
           C 182.72,90.30 170.44,78.09 168.29,61.00
             167.79,57.02 168.33,53.86 169.24,50.00
             173.30,32.74 187.86,23.62 205.00,24.01
             215.53,24.25 227.14,28.54 231.39,39.00
             233.09,43.18 233.38,47.72 231.89,52.00
             227.06,65.91 207.37,68.01 195.00,65.00
             196.62,67.24 197.81,68.85 200.02,70.61
             210.49,78.94 222.39,70.74 232.00,69.00
             230.52,82.89 213.16,92.72 200.00,91.68 Z
           M 389.96,81.00
           C 382.30,69.25 381.91,49.33 388.40,37.00
             393.73,26.87 406.12,20.77 417.00,25.92
             420.77,27.70 423.07,30.14 426.00,33.00
             426.00,33.00 426.00,27.00 426.00,27.00
             426.00,27.00 453.00,27.00 453.00,27.00
             453.00,27.00 452.00,62.00 452.00,62.00
             452.02,66.12 452.27,71.27 454.16,75.00
             455.80,78.25 458.94,80.56 458.12,83.96
             457.30,87.34 452.99,89.54 450.00,90.61
             440.48,94.02 430.92,89.88 428.00,80.00
             428.00,80.00 426.00,80.00 426.00,80.00
             418.83,95.16 399.46,95.57 389.96,81.00 Z
           M 582.00,90.21
           C 568.05,86.18 559.69,74.02 558.30,60.00
             557.99,56.87 558.51,54.07 559.09,51.00
             562.46,33.21 577.62,23.62 595.00,24.01
             606.01,24.26 617.79,28.89 622.09,40.00
             623.17,43.55 623.20,47.35 622.09,51.00
             618.70,65.92 597.40,68.02 585.00,65.00
             586.62,67.24 587.81,68.85 590.02,70.61
             600.67,79.09 612.94,70.69 622.00,69.00
             620.09,86.93 597.58,94.72 582.00,90.21 Z
           M 35.68,40.28
           C 33.41,36.54 28.11,37.08 26.62,41.11
             24.20,47.62 33.98,51.65 39.00,50.00
             35.47,45.64 37.83,43.81 35.68,40.28 Z
           M 201.00,52.89
           C 214.71,50.27 206.75,32.06 197.42,42.23
             196.40,43.33 195.70,44.62 195.15,46.00
             194.20,48.38 194.12,50.50 194.00,52.89
             194.00,52.89 201.00,52.89 201.00,52.89 Z
           M 267.00,52.83
           C 268.77,52.29 270.35,51.71 271.72,50.49
             278.89,44.15 270.60,34.40 263.42,42.23
             262.40,43.33 261.70,44.62 261.15,46.00
             260.20,48.38 260.12,50.50 260.00,52.83
             262.02,52.99 265.08,53.05 267.00,52.83 Z
           M 330.00,39.00
           C 330.00,39.00 330.00,66.00 330.00,66.00
             330.05,69.14 330.11,72.98 332.65,75.26
             334.85,77.25 341.52,77.15 345.00,78.00
             345.00,78.00 345.00,39.00 345.00,39.00
             345.00,39.00 330.00,39.00 330.00,39.00 Z
           M 591.00,52.89
           C 592.88,52.43 594.32,51.86 595.77,50.57
             603.09,44.05 594.51,34.50 587.42,42.23
             586.40,43.33 585.70,44.62 585.15,46.00
             584.20,48.38 584.12,50.50 584.00,52.89
             584.00,52.89 591.00,52.89 591.00,52.89 Z
           M 410.68,65.00
           C 411.69,69.13 414.90,74.58 419.98,73.16
             429.32,70.54 429.08,47.23 421.79,43.03
             419.95,41.97 418.95,42.30 417.04,42.45
             409.05,45.85 408.89,57.62 410.68,65.00 Z
           M 19.00,64.00
           C 19.00,64.00 20.00,65.00 20.00,65.00
             20.00,65.00 20.00,64.00 20.00,64.00
             20.00,64.00 19.00,64.00 19.00,64.00 Z
           M 23.32,74.81
           C 25.76,78.93 33.00,78.86 34.34,74.81
             36.50,68.44 25.31,65.68 21.00,65.00
             21.00,65.00 23.32,74.81 23.32,74.81 Z
           M 481.01,71.00
           C 481.18,72.36 481.30,73.64 482.02,74.85
             485.09,80.03 494.18,78.05 492.34,72.04
             491.68,69.88 489.89,68.56 487.98,67.56
             487.98,67.56 481.01,65.00 481.01,65.00
             480.70,67.02 480.78,68.96 481.01,71.00 Z" />
</svg>
